<?xml version="1.0" encoding="utf-8"?>
<!-- Generator: Adobe Illustrator 18.1.1, SVG Export Plug-In . SVG Version: 6.00 Build 0)  -->
<!DOCTYPE svg PUBLIC "-//W3C//DTD SVG 1.1//EN" "http://www.w3.org/Graphics/SVG/1.1/DTD/svg11.dtd">
<svg version="1.1" id="Layer_1" xmlns="http://www.w3.org/2000/svg" xmlns:xlink="http://www.w3.org/1999/xlink" x="0px" y="0px"
	 viewBox="0 0 200 200" enable-background="new 0 0 200 200" xml:space="preserve">
<path fill="none" stroke="#FF3300" stroke-width="11" stroke-miterlimit="10" d="M133,81.2c-3.4,10.2-9,19.7-16.4,27.7
	c-4.2-18.8-9.5-37-16.1-55c-4.4,10.6-9.3,21.1-15,31c-11.1-17.9-23-35.7-35.6-52.6c4,17.5,4.8,35.9,2.2,53.6
	c-2.4,16.1-7.5,32.3-8.4,48.9c-0.8,16.6,3.8,34.7,17.1,44.7c11.3,8.6,26.3,9.5,40.5,10.2c9.3,0.4,19,0.8,27.7-2.4
	c19.1-7,28.7-29.7,27.1-50C154.3,116.9,143.7,98.5,133,81.2z"/>
<path fill="none" stroke="#FF3300" stroke-width="8" stroke-miterlimit="10" d="M58.7,147.6c0.2-14.6,2.6-29,7.1-42.9
	c7.3,8,13.5,17.3,17.9,27.3c3-6.8,7.8-12.6,13.5-17.1c2.6,7.5,4.6,13.9,10.2,19.1c1.6,1.4,3.4,3,5.3,3c1.2,0,2.4-0.6,3.4-1.4
	c7-4.4,10-8,16.4-16.4c2.6,11.7,2.6,20.5,3,32.7"/>
</svg>
