<?xml version="1.0" encoding="utf-8"?>
<!-- Generator: Adobe Illustrator 18.1.1, SVG Export Plug-In . SVG Version: 6.00 Build 0)  -->
<!DOCTYPE svg PUBLIC "-//W3C//DTD SVG 1.1//EN" "http://www.w3.org/Graphics/SVG/1.1/DTD/svg11.dtd">
<svg version="1.1" id="Layer_1" xmlns="http://www.w3.org/2000/svg" xmlns:xlink="http://www.w3.org/1999/xlink" x="0px" y="0px"
	 viewBox="0 0 200 200" enable-background="new 0 0 200 200" xml:space="preserve">
<path fill="none" stroke="#FF3300" stroke-width="11" stroke-miterlimit="10" d="M131.3,78.7c-3.2,9.7-8.5,18.7-15.6,26.3
	c-4-17.8-9-35.1-15.3-52.2c-4.2,10.1-8.8,20-14.2,29.4c-10.5-17-21.8-33.9-33.8-49.9c3.8,16.6,4.6,34.1,2.1,50.9
	c-2.3,15.3-7.1,30.7-8,46.4c-0.8,15.8,3.6,32.9,16.2,42.4c10.7,8.2,25,9,38.4,9.7c8.8,0.4,18,0.8,26.3-2.3
	c18.1-6.6,27.2-28.2,25.7-47.5C151.5,112.6,141.5,95.1,131.3,78.7z"/>
<path fill="none" stroke="#FF3300" stroke-width="8" stroke-miterlimit="10" d="M60.8,141.7c0.2-13.9,2.5-27.5,6.7-40.7
	c6.9,7.6,12.8,16.4,17,25.9c2.8-6.5,7.4-12,12.8-16.2c2.5,7.1,4.4,13.2,9.7,18.1c1.5,1.3,3.2,2.8,5,2.8c1.1,0,2.3-0.6,3.2-1.3
	c6.6-4.2,9.5-7.6,15.6-15.6c2.5,11.1,2.5,19.5,2.8,31"/>
</svg>
